<?xml version="1.0" encoding="utf-8"?>
<!-- Generator: Adobe Illustrator 25.4.1, SVG Export Plug-In . SVG Version: 6.00 Build 0)  -->
<svg version="1.1" id="Layer_1" xmlns="http://www.w3.org/2000/svg" xmlns:xlink="http://www.w3.org/1999/xlink" x="0px" y="0px"
	 viewBox="0 0 25 25" style="enable-background:new 0 0 25 25;" xml:space="preserve">
<style type="text/css">
	.st0{fill:#6DC7B4;}
	.st1{fill:#FFFFFF;}
</style>
<circle class="st0" cx="12.5" cy="12.5" r="12.1"/>
<g>
	<path class="st1" d="M13.4,15.6L13.4,15.6l-0.1,1.7h0.1c0.3,0,0.5-0.2,0.5-0.5V16C13.8,15.8,13.6,15.6,13.4,15.6z"/>
	<path class="st1" d="M11.9,15.6c-0.3,0-0.5,0.2-0.5,0.5v0.8c0,0.3,0.2,0.5,0.5,0.5H12L11.9,15.6L11.9,15.6z"/>
	<path class="st1" d="M12.3,17.6c0,0.2,0.2,0.4,0.4,0.4c0.2,0,0.4-0.2,0.4-0.4v-0.4h-0.7V17.6z"/>
	<path class="st1" d="M13,15.5c0-0.2-0.2-0.4-0.4-0.4c-0.2,0-0.4,0.2-0.4,0.4v0.1H13V15.5z"/>
	<rect x="12.3" y="15.6" class="st1" width="0.7" height="1.7"/>
	<path class="st1" d="M13.8,21.7l-0.5-3.4c0.1-0.1,0.1-0.3,0.1-0.4c0-0.5-0.4-0.8-0.8-0.8s-0.8,0.4-0.8,0.8c0,0.2,0,0.3,0.1,0.4
		l-0.4,3.3c-0.3,0.3-0.4,0.7-0.4,1.1c0,0.8,0.7,1.5,1.5,1.5s1.5-0.7,1.5-1.5C14.2,22.3,14,22,13.8,21.7z M12.6,17.5
		c0.2,0,0.4,0.2,0.4,0.4c0,0,0,0,0,0.1c0,0.2-0.2,0.4-0.4,0.4c-0.2,0-0.4-0.2-0.4-0.4c0,0,0,0,0-0.1C12.2,17.7,12.4,17.5,12.6,17.5z
		 M12.6,23.5c-0.5,0-0.8-0.4-0.8-0.8c0,0,0-0.1,0-0.1c0-0.4,0.4-0.7,0.8-0.7c0.4,0,0.8,0.3,0.8,0.7c0,0,0,0.1,0,0.1
		C13.5,23.1,13.1,23.5,12.6,23.5z"/>
</g>
<g>
	<path class="st1" d="M19.8,5.2l-0.1,1.2l0.8,0l-0.2-1.2c0-0.2-0.1-0.3-0.3-0.3l0,0C19.9,4.9,19.8,5.1,19.8,5.2z"/>
	<path class="st1" d="M18.1,5.5l0.1,1.2l0.8-0.2l-0.4-1.1c-0.1-0.2-0.2-0.3-0.3-0.2v0C18.2,5.2,18.1,5.4,18.1,5.5z"/>
	<path class="st1" d="M16.5,6.2l0.4,1.2L17.7,7L17,6c-0.1-0.2-0.3-0.2-0.4-0.1l0,0C16.5,5.9,16.5,6.1,16.5,6.2z"/>
	<path class="st1" d="M15.1,7.3l0.6,1l0.6-0.6l-0.9-0.8c-0.1-0.1-0.3-0.1-0.4-0.1v0C15,7,15,7.2,15.1,7.3z"/>
	<path class="st1" d="M14,8.7l0.8,0.8l0.5-0.7l-1-0.6c-0.2-0.1-0.3-0.1-0.4,0h0C13.8,8.4,13.9,8.5,14,8.7z"/>
	<path class="st1" d="M13.2,10.3l1,0.6l0.3-0.8l-1.1-0.3c-0.2,0-0.3,0-0.4,0.1v0C13,10,13,10.2,13.2,10.3z"/>
	<path class="st1" d="M12.7,12l1.1,0.4l0.1-0.9l-1.2-0.1c-0.2,0-0.3,0.1-0.3,0.2h0C12.5,11.8,12.6,12,12.7,12z"/>
	<path class="st1" d="M12.7,13.8l1.2,0.1l-0.1-0.9l-1.1,0.2c-0.2,0-0.3,0.2-0.3,0.3l0,0C12.4,13.7,12.5,13.8,12.7,13.8z"/>
</g>
<g>
	<path class="st1" d="M5.9,5.8L6,7L5.1,6.9l0.2-1.2c0-0.2,0.2-0.3,0.3-0.3h0C5.8,5.4,5.9,5.6,5.9,5.8z"/>
	<path class="st1" d="M7.6,6.1L7.4,7.4L6.6,7.1L7.1,6c0.1-0.2,0.2-0.3,0.4-0.2l0,0C7.6,5.8,7.6,6,7.6,6.1z"/>
	<path class="st1" d="M9.2,6.9L8.7,8L8,7.6l0.7-1C8.8,6.5,9,6.4,9.1,6.5l0,0C9.2,6.6,9.3,6.7,9.2,6.9z"/>
	<path class="st1" d="M10.6,8L9.9,9L9.3,8.4l0.9-0.8c0.1-0.1,0.3-0.1,0.4,0l0,0C10.7,7.7,10.7,7.9,10.6,8z"/>
	<path class="st1" d="M11.7,9.5l-0.9,0.8l-0.5-0.7L11.4,9c0.2-0.1,0.3-0.1,0.4,0.1v0C11.9,9.2,11.8,9.3,11.7,9.5z"/>
	<path class="st1" d="M12.4,11.1l-1.1,0.6l-0.3-0.8l1.2-0.3c0.2,0,0.3,0,0.4,0.2l0,0C12.7,10.9,12.6,11,12.4,11.1z"/>
	<path class="st1" d="M12.8,12.9l-1.2,0.3l-0.1-0.9l1.2,0c0.2,0,0.3,0.1,0.3,0.2v0C13.1,12.7,13,12.8,12.8,12.9z"/>
	<path class="st1" d="M12.8,14.7l-1.2,0l0.1-0.9l1.2,0.3c0.2,0,0.3,0.2,0.3,0.3l0,0C13.1,14.6,13,14.7,12.8,14.7z"/>
</g>
</svg>
